<svg width="24" height="24" viewBox="0 0 24 24" fill="none" xmlns="http://www.w3.org/2000/svg">
<g id="iconamoon:invoice-fill">
<path id="Union" fill-rule="evenodd" clip-rule="evenodd" d="M4.29289 2.29289C4.10536 2.48043 4 2.73478 4 3V21C4.00001 21.1913 4.05488 21.3785 4.15809 21.5395C4.2613 21.7006 4.40852 21.8286 4.5823 21.9085C4.75608 21.9884 4.94913 22.0168 5.13855 21.9903C5.32797 21.9638 5.50582 21.8835 5.651 21.759L6.683 20.875C6.8642 20.7198 7.09492 20.6345 7.3335 20.6345C7.57208 20.6345 7.8028 20.7198 7.984 20.875L9.016 21.759C9.19727 21.9145 9.42819 21.9999 9.667 21.9999C9.90581 21.9999 10.1367 21.9145 10.318 21.759L11.349 20.875C11.5303 20.7195 11.7612 20.6341 12 20.6341C12.2388 20.6341 12.4697 20.7195 12.651 20.875L13.682 21.759C13.8633 21.9145 14.0942 21.9999 14.333 21.9999C14.5718 21.9999 14.8027 21.9145 14.984 21.759L16.016 20.875C16.1972 20.7198 16.4279 20.6345 16.6665 20.6345C16.9051 20.6345 17.1358 20.7198 17.317 20.875L18.35 21.76C18.4953 21.8843 18.6731 21.9643 18.8625 21.9906C19.0518 22.0169 19.2447 21.9883 19.4184 21.9083C19.592 21.8284 19.7391 21.7003 19.8421 21.5393C19.9452 21.3783 20 21.1912 20 21V3C20 2.73478 19.8946 2.48043 19.7071 2.29289C19.5196 2.10536 19.2652 2 19 2H5C4.73478 2 4.48043 2.10536 4.29289 2.29289Z" fill="#3E3E3E"/>
<path id="Vector" d="M15.8228 7.18326C15.7667 7.12701 15.7 7.08238 15.6266 7.05193C15.5532 7.02148 15.4745 7.00581 15.395 7.00581C15.3155 7.00581 15.2369 7.02148 15.1634 7.05193C15.09 7.08238 15.0234 7.12701 14.9672 7.18326L12 10.1444L9.03278 7.1772C8.9766 7.12102 8.90991 7.07646 8.8365 7.04605C8.7631 7.01565 8.68443 7 8.60499 7C8.52554 7 8.44687 7.01565 8.37347 7.04605C8.30007 7.07646 8.23337 7.12102 8.1772 7.1772C8.12102 7.23337 8.07646 7.30007 8.04605 7.37347C8.01565 7.44687 8 7.52554 8 7.60499C8 7.68443 8.01565 7.7631 8.04605 7.8365C8.07646 7.90991 8.12102 7.9766 8.1772 8.03278L11.1444 11L8.1772 13.9672C8.12102 14.0234 8.07646 14.0901 8.04605 14.1635C8.01565 14.2369 8 14.3156 8 14.395C8 14.4745 8.01565 14.5531 8.04605 14.6265C8.07646 14.6999 8.12102 14.7666 8.1772 14.8228C8.23337 14.879 8.30007 14.9235 8.37347 14.9539C8.44687 14.9844 8.52554 15 8.60499 15C8.68443 15 8.7631 14.9844 8.8365 14.9539C8.90991 14.9235 8.9766 14.879 9.03278 14.8228L12 11.8556L14.9672 14.8228C15.0234 14.879 15.0901 14.9235 15.1635 14.9539C15.2369 14.9844 15.3156 15 15.395 15C15.4745 15 15.5531 14.9844 15.6265 14.9539C15.6999 14.9235 15.7666 14.879 15.8228 14.8228C15.879 14.7666 15.9235 14.6999 15.9539 14.6265C15.9844 14.5531 16 14.4745 16 14.395C16 14.3156 15.9844 14.2369 15.9539 14.1635C15.9235 14.0901 15.879 14.0234 15.8228 13.9672L12.8556 11L15.8228 8.03278C16.0534 7.80219 16.0534 7.41385 15.8228 7.18326Z" fill="#070708"/>
</g>
</svg>
