<svg width="20" height="20" viewBox="0 0 20 20" fill="none" xmlns="http://www.w3.org/2000/svg">
<g id="copy">
<path id="Vector" d="M11.6666 6.66699H3.33329C2.41413 6.66699 1.66663 7.41449 1.66663 8.33366V16.667C1.66663 17.5862 2.41413 18.3337 3.33329 18.3337H11.6666C12.5858 18.3337 13.3333 17.5862 13.3333 16.667V8.33366C13.3333 7.41449 12.5858 6.66699 11.6666 6.66699Z" fill="#0F0F10"/>
<path id="Vector_2" d="M16.6666 1.66699H8.33329C7.89127 1.66699 7.46734 1.84259 7.15478 2.15515C6.84222 2.46771 6.66663 2.89163 6.66663 3.33366V5.00033H13.3333C13.7753 5.00033 14.1992 5.17592 14.5118 5.48848C14.8244 5.80104 15 6.22497 15 6.66699V13.3337H16.6666C17.1087 13.3337 17.5326 13.1581 17.8451 12.8455C18.1577 12.5329 18.3333 12.109 18.3333 11.667V3.33366C18.3333 2.89163 18.1577 2.46771 17.8451 2.15515C17.5326 1.84259 17.1087 1.66699 16.6666 1.66699Z" fill="#0F0F10"/>
</g>
</svg>
