<svg width="104" height="104" viewBox="0 0 104 104" fill="none" xmlns="http://www.w3.org/2000/svg">
<rect width="104" height="104" rx="24" fill="#161F18"/>
<path fill-rule="evenodd" clip-rule="evenodd" d="M33.335 31.0003C33.335 30.3815 33.5808 29.788 34.0184 29.3504C34.456 28.9128 35.0495 28.667 35.6683 28.667H68.335C68.9538 28.667 69.5473 28.9128 69.9849 29.3504C70.4225 29.788 70.6683 30.3815 70.6683 31.0003V73.0003C70.6683 73.4464 70.5405 73.8831 70.3 74.2587C70.0594 74.6344 69.7163 74.9332 69.3111 75.1198C68.906 75.3064 68.4559 75.373 68.014 75.3116C67.5722 75.2503 67.1573 75.0636 66.8183 74.7737L64.408 72.7087C63.9852 72.3465 63.4468 72.1475 62.8901 72.1475C62.3334 72.1475 61.7951 72.3465 61.3723 72.7087L58.9643 74.7713C58.5413 75.1341 58.0025 75.3335 57.4453 75.3335C56.8881 75.3335 56.3493 75.1341 55.9263 74.7713L53.5206 72.7087C53.0977 72.3459 52.5588 72.1465 52.0016 72.1465C51.4444 72.1465 50.9056 72.3459 50.4826 72.7087L48.077 74.7713C47.654 75.1341 47.1152 75.3335 46.558 75.3335C46.0007 75.3335 45.4619 75.1341 45.039 74.7713L42.631 72.7087C42.2082 72.3465 41.6698 72.1475 41.1131 72.1475C40.5564 72.1475 40.0181 72.3465 39.5953 72.7087L37.1873 74.7713C36.8485 75.0619 36.4336 75.2491 35.9916 75.311C35.5496 75.3728 35.0992 75.3066 34.6937 75.1202C34.2882 74.9338 33.9447 74.635 33.7038 74.2593C33.463 73.8835 33.335 73.4466 33.335 73.0003V31.0003ZM45.0016 38.0003C44.3828 38.0003 43.7893 38.2462 43.3517 38.6837C42.9141 39.1213 42.6683 39.7148 42.6683 40.3337C42.6683 40.9525 42.9141 41.546 43.3517 41.9836C43.7893 42.4212 44.3828 42.667 45.0016 42.667H59.0016C59.6205 42.667 60.214 42.4212 60.6515 41.9836C61.0891 41.546 61.335 40.9525 61.335 40.3337C61.335 39.7148 61.0891 39.1213 60.6515 38.6837C60.214 38.2462 59.6205 38.0003 59.0016 38.0003H45.0016ZM45.0016 47.3337C44.3828 47.3337 43.7893 47.5795 43.3517 48.0171C42.9141 48.4547 42.6683 49.0482 42.6683 49.667C42.6683 50.2858 42.9141 50.8793 43.3517 51.3169C43.7893 51.7545 44.3828 52.0003 45.0016 52.0003H59.0016C59.6205 52.0003 60.214 51.7545 60.6515 51.3169C61.0891 50.8793 61.335 50.2858 61.335 49.667C61.335 49.0482 61.0891 48.4547 60.6515 48.0171C60.214 47.5795 59.6205 47.3337 59.0016 47.3337H45.0016ZM47.335 59.0003C47.335 58.3815 47.5808 57.788 48.0184 57.3504C48.456 56.9128 49.0495 56.667 49.6683 56.667H59.0016C59.6205 56.667 60.214 56.9128 60.6515 57.3504C61.0891 57.788 61.335 58.3815 61.335 59.0003C61.335 59.6192 61.0891 60.2127 60.6515 60.6502C60.214 61.0878 59.6205 61.3337 59.0016 61.3337H49.6683C49.0495 61.3337 48.456 61.0878 48.0184 60.6502C47.5808 60.2127 47.335 59.6192 47.335 59.0003Z" fill="#91EE95"/>
</svg>
