<svg viewBox="0 0 168 168" fill="none" xmlns="http://www.w3.org/2000/svg">
<path fill-rule="evenodd" clip-rule="evenodd" d="M30.0512 16.0493C28.7385 17.362 28.001 19.1425 28.001 20.999V146.999C28.0011 148.338 28.3851 149.649 29.1076 150.776C29.8301 151.903 30.8606 152.799 32.0771 153.359C33.2936 153.918 34.6449 154.116 35.9708 153.931C37.2968 153.745 38.5417 153.184 39.558 152.312L46.782 146.124C48.0504 145.038 49.6654 144.441 51.3355 144.441C53.0055 144.441 54.6206 145.038 55.889 146.124L63.113 152.312C64.3819 153.4 65.9983 153.998 67.67 153.998C69.3416 153.998 70.9581 153.4 72.227 152.312L79.444 146.124C80.7129 145.036 82.3293 144.438 84.001 144.438C85.6726 144.438 87.2891 145.036 88.558 146.124L95.775 152.312C97.0439 153.4 98.6603 153.998 100.332 153.998C102.004 153.998 103.62 153.4 104.889 152.312L112.113 146.124C113.381 145.038 114.996 144.441 116.666 144.441C118.337 144.441 119.952 145.038 121.22 146.124L128.451 152.319C129.468 153.189 130.713 153.749 132.038 153.933C133.364 154.117 134.714 153.917 135.929 153.357C137.145 152.798 138.174 151.901 138.896 150.774C139.618 149.647 140.001 148.337 140.001 146.999V20.999C140.001 19.1425 139.263 17.362 137.951 16.0493C136.638 14.7365 134.857 13.999 133.001 13.999H35.001C33.1445 13.999 31.364 14.7365 30.0512 16.0493Z" fill="#313131"/>
<path d="M62.4446 98.378C61.4366 98.378 60.6386 98.098 60.0506 97.538C59.4906 96.978 59.2106 96.166 59.2106 95.102V92.708H49.8026C48.7666 92.708 47.9406 92.484 47.3246 92.036C46.7086 91.56 46.4006 90.846 46.4006 89.894C46.4006 89.334 46.5266 88.76 46.7786 88.172C47.0306 87.584 47.4786 86.856 48.1226 85.988L59.0006 70.154C59.4766 69.454 60.0086 68.922 60.5966 68.558C61.1846 68.194 61.8566 68.012 62.6126 68.012C63.5086 68.012 64.2226 68.292 64.7546 68.852C65.3146 69.384 65.5946 70.196 65.5946 71.288V87.584H67.1486C68.0726 87.584 68.7726 87.808 69.2486 88.256C69.7246 88.676 69.9626 89.306 69.9626 90.146C69.9626 90.958 69.7246 91.588 69.2486 92.036C68.8006 92.484 68.1006 92.708 67.1486 92.708H65.5946V95.102C65.5946 96.166 65.3146 96.978 64.7546 97.538C64.2226 98.098 63.4526 98.378 62.4446 98.378ZM59.2106 87.584V76.034H60.4286L51.4826 89.18V87.584H59.2106ZM83.0082 98.462C79.4242 98.462 76.6802 97.132 74.7762 94.472C72.9002 91.784 71.9622 87.99 71.9622 83.09C71.9622 79.814 72.3822 77.056 73.2222 74.816C74.0902 72.548 75.3362 70.84 76.9602 69.692C78.6122 68.516 80.6282 67.928 83.0082 67.928C86.6202 67.928 89.3642 69.23 91.2402 71.834C93.1162 74.41 94.0542 78.162 94.0542 83.09C94.0542 86.366 93.6202 89.152 92.7522 91.448C91.9122 93.716 90.6802 95.452 89.0562 96.656C87.4322 97.86 85.4162 98.462 83.0082 98.462ZM83.0082 93.17C84.6322 93.17 85.8362 92.372 86.6202 90.776C87.4042 89.152 87.7962 86.59 87.7962 83.09C87.7962 79.59 87.4042 77.07 86.6202 75.53C85.8362 73.99 84.6322 73.22 83.0082 73.22C81.3842 73.22 80.1802 73.99 79.3962 75.53C78.6122 77.07 78.2202 79.59 78.2202 83.09C78.2202 86.59 78.6122 89.152 79.3962 90.776C80.1802 92.372 81.3842 93.17 83.0082 93.17ZM112.812 98.378C111.804 98.378 111.006 98.098 110.418 97.538C109.858 96.978 109.578 96.166 109.578 95.102V92.708H100.17C99.1338 92.708 98.3078 92.484 97.6918 92.036C97.0758 91.56 96.7678 90.846 96.7678 89.894C96.7678 89.334 96.8938 88.76 97.1458 88.172C97.3978 87.584 97.8458 86.856 98.4898 85.988L109.368 70.154C109.844 69.454 110.376 68.922 110.964 68.558C111.552 68.194 112.224 68.012 112.98 68.012C113.876 68.012 114.59 68.292 115.122 68.852C115.682 69.384 115.962 70.196 115.962 71.288V87.584H117.516C118.44 87.584 119.14 87.808 119.616 88.256C120.092 88.676 120.33 89.306 120.33 90.146C120.33 90.958 120.092 91.588 119.616 92.036C119.168 92.484 118.468 92.708 117.516 92.708H115.962V95.102C115.962 96.166 115.682 96.978 115.122 97.538C114.59 98.098 113.82 98.378 112.812 98.378ZM109.578 87.584V76.034H110.796L101.85 89.18V87.584H109.578Z" fill="#070708"/>
</svg>
