<svg width="20" height="20" viewBox="0 0 20 20" fill="none" xmlns="http://www.w3.org/2000/svg">
<g id="metamask" clip-path="url(#clip0_529_1044)">
<path id="Vector" d="M19.5364 0L10.9546 6.77325L12.5504 2.78158L19.5364 0Z" fill="#E17726"/>
<path id="Vector_2" d="M0.483633 0.0078125L7.4509 2.7819L8.96621 6.8259L0.483633 0.0078125ZM16.0828 14.4046L19.8758 14.4816L18.5502 19.2851L13.9218 17.9259L16.0828 14.4046ZM3.91707 14.4046L6.06996 17.9259L1.44941 19.2852L0.131836 14.4816L3.91707 14.4046Z" fill="#E27625"/>
<path id="Vector_3" d="M8.76021 5.79591L8.91521 11.1362L4.27686 10.9111L5.59623 8.78791L5.61295 8.76749L8.76021 5.79591ZM11.1917 5.73633L14.387 8.76766L14.4036 8.788L15.7229 10.9112L11.0856 11.1362L11.1917 5.73633ZM6.20584 14.4202L8.7385 16.5252L5.79646 18.0402L6.20584 14.4202ZM13.7946 14.4199L14.1954 18.0403L11.2616 16.525L13.7946 14.4199Z" fill="#E27625"/>
<path id="Vector_4" d="M11.3265 16.3271L14.3036 17.8648L11.5343 19.2686L11.5631 18.3408L11.3265 16.3271ZM8.67285 16.3278L8.44559 18.3256L8.46426 19.2676L5.68848 17.8648L8.67285 16.3278Z" fill="#D5BFB2"/>
<path id="Vector_5" d="M7.81309 11.833L8.59105 13.577L5.94238 12.7493L7.81309 11.833ZM12.1869 11.8332L14.0664 12.7493L11.4091 13.5768L12.1869 11.8332Z" fill="#233447"/>
<path id="Vector_6" d="M6.40844 14.4028L5.98031 18.1561L3.68555 14.4849L6.40844 14.4028ZM13.592 14.4029L16.315 14.4849L14.0116 18.1563L13.592 14.4029ZM15.7902 10.6992L13.8085 12.8535L12.2806 12.1087L11.5491 13.7491L11.0696 10.9283L15.7902 10.6992ZM4.20914 10.6992L8.93062 10.9283L8.45102 13.7491L7.71938 12.109L6.19961 12.8536L4.20914 10.6992Z" fill="#CC6228"/>
<path id="Vector_7" d="M4.07568 10.2573L6.31771 12.684L6.39537 15.0798L4.07568 10.2573ZM15.927 10.2529L13.6031 15.084L13.6906 12.684L15.927 10.2529ZM8.82107 10.4051L8.91131 11.0109L9.13428 12.5202L8.99092 17.1556L8.31318 13.4318L8.31295 13.3933L8.82107 10.4051ZM11.1782 10.3967L11.6876 13.3933L11.6874 13.4318L11.0079 17.1649L10.9811 16.2312L10.8751 12.4927L11.1782 10.3967Z" fill="#E27525"/>
<path id="Vector_8" d="M13.8898 12.5869L13.814 14.6684L11.4488 16.634L10.9707 16.2737L11.5066 13.3291L13.8898 12.5869ZM6.11865 12.5869L8.49357 13.3291L9.02951 16.2737L8.55139 16.634L6.18615 14.6682L6.11865 12.5869Z" fill="#F5841F"/>
<path id="Vector_9" d="M5.23584 17.4053L8.26178 18.9346L8.24896 18.2815L8.50217 18.0444H11.497L11.7594 18.2807L11.74 18.9333L14.7468 17.4091L13.2837 18.6988L11.5145 19.9949H8.47787L6.7099 18.6934L5.23584 17.4053Z" fill="#C0AC9D"/>
<path id="Vector_10" d="M11.1096 16.123L11.5375 16.4455L11.7882 18.5791L11.4254 18.2524H8.57566L8.21973 18.5857L8.46223 16.4456L8.8902 16.123H11.1096Z" fill="#161616"/>
<path id="Vector_11" d="M18.9698 0.1875L20 3.48392L19.3566 6.817L19.8148 7.19392L19.1948 7.69842L19.6608 8.08225L19.0438 8.6815L19.4226 8.97408L18.4174 10.2262L14.2948 8.94583L14.2591 8.92542L11.2882 6.25225L18.9698 0.1875ZM1.03016 0.1875L8.71187 6.25225L5.74094 8.92542L5.70523 8.94583L1.58258 10.2262L0.577422 8.97408L0.955859 8.68175L0.339297 8.08225L0.804297 7.69883L0.175078 7.19292L0.650469 6.81575L0 3.48408L1.03016 0.1875Z" fill="#763E1A"/>
<path id="Vector_12" d="M14.0931 8.66627L18.4613 10.0228L19.8805 14.6883H16.1364L13.5567 14.723L15.4328 10.8223L14.0931 8.66627ZM5.90689 8.66627L4.56697 10.8223L6.4433 14.723L3.86479 14.6883H0.127441L1.53861 10.0229L5.90689 8.66627ZM12.7644 2.75977L11.5426 6.27968L11.2833 11.0347L11.1841 12.5251L11.1762 16.3324H8.82377L8.81611 12.5323L8.71658 11.0334L8.45721 6.27968L7.23557 2.75977H12.7644Z" fill="#F5841F"/>
</g>
<defs>
<clipPath id="clip0_529_1044">
<rect width="20" height="20" fill="white"/>
</clipPath>
</defs>
</svg>
