<svg width="24" height="24" viewBox="0 0 24 24" fill="none" xmlns="http://www.w3.org/2000/svg">
<g id="iconamoon:invoice-fill">
<path id="Union" fill-rule="evenodd" clip-rule="evenodd" d="M4.29289 2.29289C4.10536 2.48043 4 2.73478 4 3V21C4.00001 21.1913 4.05488 21.3785 4.15809 21.5395C4.2613 21.7006 4.40852 21.8286 4.5823 21.9085C4.75608 21.9884 4.94913 22.0168 5.13855 21.9903C5.32797 21.9638 5.50582 21.8835 5.651 21.759L6.683 20.875C6.8642 20.7198 7.09492 20.6345 7.3335 20.6345C7.57208 20.6345 7.8028 20.7198 7.984 20.875L9.016 21.759C9.19727 21.9145 9.42819 21.9999 9.667 21.9999C9.90581 21.9999 10.1367 21.9145 10.318 21.759L11.349 20.875C11.5303 20.7195 11.7612 20.6341 12 20.6341C12.2388 20.6341 12.4697 20.7195 12.651 20.875L13.682 21.759C13.8633 21.9145 14.0942 21.9999 14.333 21.9999C14.5718 21.9999 14.8027 21.9145 14.984 21.759L16.016 20.875C16.1972 20.7198 16.4279 20.6345 16.6665 20.6345C16.9051 20.6345 17.1358 20.7198 17.317 20.875L18.35 21.76C18.4953 21.8843 18.6731 21.9643 18.8625 21.9906C19.0518 22.0169 19.2447 21.9883 19.4184 21.9083C19.592 21.8284 19.7391 21.7003 19.8421 21.5393C19.9452 21.3783 20 21.1912 20 21V3C20 2.73478 19.8946 2.48043 19.7071 2.29289C19.5196 2.10536 19.2652 2 19 2H5C4.73478 2 4.48043 2.10536 4.29289 2.29289Z" fill="#91EE95"/>
<path id="Vector" d="M9 12L11 14L15 10" stroke="#070708" stroke-width="2" stroke-linecap="round" stroke-linejoin="round"/>
</g>
</svg>
