<svg width="20" height="20" viewBox="0 0 20 20" fill="none" xmlns="http://www.w3.org/2000/svg">
<path d="M7.49992 3.33343C3.81659 3.33343 0.833252 6.31676 0.833252 10.0001C0.833252 13.6834 3.81659 16.6668 7.49992 16.6668C11.1833 16.6668 14.1666 13.6834 14.1666 10.0001C14.1666 6.31676 11.1833 3.33343 7.49992 3.33343ZM7.49992 12.9168C7.04159 12.9168 6.66659 12.5418 6.66659 12.0834V8.7501H5.62492C5.28325 8.7501 4.99992 8.46676 4.99992 8.1251C4.99992 7.78343 5.28325 7.5001 5.62492 7.5001H9.37492C9.71659 7.5001 9.99992 7.78343 9.99992 8.1251C9.99992 8.46676 9.71659 8.7501 9.37492 8.7501H8.33325V12.0834C8.33325 12.5418 7.95825 12.9168 7.49992 12.9168ZM16.8749 3.1251L18.3333 3.78343C18.406 3.81658 18.4677 3.86995 18.5109 3.93718C18.5542 4.00441 18.5772 4.08266 18.5772 4.1626C18.5772 4.24254 18.5542 4.32079 18.5109 4.38802C18.4677 4.45525 18.406 4.50862 18.3333 4.54176L16.8749 5.2001L16.2166 6.66676C16.1834 6.73951 16.1301 6.80119 16.0628 6.84443C15.9956 6.88768 15.9174 6.91068 15.8374 6.91068C15.7575 6.91068 15.6792 6.88768 15.612 6.84443C15.5448 6.80119 15.4914 6.73951 15.4583 6.66676L14.7999 5.20843L13.3333 4.5501C13.2605 4.51695 13.1988 4.46358 13.1556 4.39635C13.1123 4.32912 13.0893 4.25087 13.0893 4.17093C13.0893 4.09099 13.1123 4.01274 13.1556 3.94551C13.1988 3.87828 13.2605 3.82491 13.3333 3.79176L14.7916 3.13343L15.4499 1.66676C15.4831 1.59402 15.5364 1.53234 15.6037 1.4891C15.6709 1.44585 15.7491 1.42285 15.8291 1.42285C15.909 1.42285 15.9873 1.44585 16.0545 1.4891C16.1217 1.53234 16.1751 1.59402 16.2083 1.66676L16.8749 3.1251ZM16.8749 14.7918L18.3333 15.4501C18.406 15.4832 18.4677 15.5366 18.5109 15.6038C18.5542 15.6711 18.5772 15.7493 18.5772 15.8293C18.5772 15.9092 18.5542 15.9875 18.5109 16.0547C18.4677 16.1219 18.406 16.1753 18.3333 16.2084L16.8749 16.8668L16.2166 18.3334C16.1834 18.4062 16.1301 18.4679 16.0628 18.5111C15.9956 18.5543 15.9174 18.5773 15.8374 18.5773C15.7575 18.5773 15.6792 18.5543 15.612 18.5111C15.5448 18.4679 15.4914 18.4062 15.4583 18.3334L14.7999 16.8751L13.3333 16.2168C13.2605 16.1836 13.1988 16.1303 13.1556 16.063C13.1123 15.9958 13.0893 15.9175 13.0893 15.8376C13.0893 15.7577 13.1123 15.6794 13.1556 15.6122C13.1988 15.5449 13.2605 15.4916 13.3333 15.4584L14.7916 14.8001L15.4499 13.3334C15.4831 13.2607 15.5364 13.199 15.6037 13.1558C15.6709 13.1125 15.7491 13.0895 15.8291 13.0895C15.909 13.0895 15.9873 13.1125 16.0545 13.1558C16.1217 13.199 16.1751 13.2607 16.2083 13.3334L16.8749 14.7918Z" fill="url(#paint0_linear_430_2031)"/>
<defs>
<linearGradient id="paint0_linear_430_2031" x1="18.5772" y1="1.42285" x2="1.43246" y2="19.1566" gradientUnits="userSpaceOnUse">
<stop stop-color="#B697FF"/>
<stop offset="1" stop-color="#55EBA5"/>
</linearGradient>
</defs>
</svg>
